<?xml version="1.0" encoding="UTF-8" standalone="no"?>
<!-- Generator: Adobe Illustrator 18.0.0, SVG Export Plug-In . SVG Version: 6.00 Build 0)  -->

<svg
   xmlns:dc="http://purl.org/dc/elements/1.1/"
   xmlns:cc="http://creativecommons.org/ns#"
   xmlns:rdf="http://www.w3.org/1999/02/22-rdf-syntax-ns#"
   xmlns:svg="http://www.w3.org/2000/svg"
   xmlns="http://www.w3.org/2000/svg"
   xmlns:sodipodi="http://sodipodi.sourceforge.net/DTD/sodipodi-0.dtd"
   xmlns:inkscape="http://www.inkscape.org/namespaces/inkscape"
   version="1.1"
   id="Capa_1"
   x="0px"
   y="0px"
   viewBox="0 0 236.911 236.911"
   style="enable-background:new 0 0 236.911 236.911;"
   xml:space="preserve"
   sodipodi:docname="go (1).svg"
   inkscape:version="0.92.5 (2060ec1f9f, 2020-04-08)"><metadata
   id="metadata47"><rdf:RDF><cc:Work
       rdf:about=""><dc:format>image/svg+xml</dc:format><dc:type
         rdf:resource="http://purl.org/dc/dcmitype/StillImage" /><dc:title></dc:title></cc:Work></rdf:RDF></metadata><defs
   id="defs45" /><sodipodi:namedview
   pagecolor="#ffffff"
   bordercolor="#666666"
   borderopacity="1"
   objecttolerance="10"
   gridtolerance="10"
   guidetolerance="10"
   inkscape:pageopacity="0"
   inkscape:pageshadow="2"
   inkscape:window-width="1366"
   inkscape:window-height="704"
   id="namedview43"
   showgrid="false"
   inkscape:zoom="0.99615469"
   inkscape:cx="118.4555"
   inkscape:cy="118.4555"
   inkscape:window-x="0"
   inkscape:window-y="27"
   inkscape:window-maximized="1"
   inkscape:current-layer="Capa_1" />
<g
   id="g10"
   transform="matrix(0.5529526,0,0,0.55294793,54.208449,56.722852)">
	<path
   d="M 118.456,0 C 53.139,0 0,53.139 0,118.456 c 0,65.317 53.139,118.456 118.455,118.456 65.316,0 118.455,-53.139 118.455,-118.456 C 236.91,53.139 183.772,0 118.456,0 Z m 0,221.911 C 61.411,221.911 15,175.501 15,118.456 15,61.411 61.411,15 118.456,15 c 57.045,0 103.455,46.41 103.455,103.456 0,57.046 -46.411,103.455 -103.455,103.455 z"
   id="path2"
   inkscape:connector-curvature="0" />
	<path
   d="m 118.456,31.34 c -48.035,0 -87.115,39.08 -87.115,87.115 0,48.035 39.08,87.115 87.115,87.115 48.035,0 87.115,-39.08 87.115,-87.115 0,-48.035 -39.08,-87.115 -87.115,-87.115 z m 0,164.231 c -42.521,0 -77.115,-34.594 -77.115,-77.115 0,-42.521 34.593,-77.116 77.115,-77.116 42.522,0 77.115,34.594 77.115,77.115 0,42.521 -34.594,77.116 -77.115,77.116 z"
   id="path4"
   inkscape:connector-curvature="0" />
	<path
   d="m 92.639,95.333 c 4.643,0 7.801,2.786 7.801,11.422 h 12.815 c -0.465,-15.229 -7.522,-22.75 -20.615,-22.75 -12.443,0 -21.171,5.943 -21.171,22.471 v 23.958 c 0,16.529 8.729,22.472 21.171,22.472 4.829,0 8.543,-2.6 11.979,-6.5 l 1.95,5.571 h 6.687 V 117.619 H 91.433 v 10.586 h 9.007 v 4.085 c 0,5.758 -2.971,9.286 -7.801,9.286 -5.107,0 -8.357,-2.043 -8.357,-9.471 v -27.3 c 0,-7.428 3.25,-9.472 8.357,-9.472 z"
   id="path6"
   inkscape:connector-curvature="0" />
	<path
   d="m 144.271,84.005 c -12.443,0 -21.171,5.943 -21.171,22.471 v 23.958 c 0,16.529 8.729,22.472 21.171,22.472 12.444,0 21.172,-5.943 21.172,-22.472 v -23.958 c 0,-16.528 -8.728,-22.471 -21.172,-22.471 z m 8.357,48.101 c 0,7.429 -3.25,9.471 -8.357,9.471 -5.107,0 -8.357,-2.043 -8.357,-9.471 v -27.3 c 0,-7.429 3.25,-9.472 8.357,-9.472 5.107,0 8.357,2.043 8.357,9.472 z"
   id="path8"
   inkscape:connector-curvature="0" />
</g>
<g
   id="g12">
</g>
<g
   id="g14">
</g>
<g
   id="g16">
</g>
<g
   id="g18">
</g>
<g
   id="g20">
</g>
<g
   id="g22">
</g>
<g
   id="g24">
</g>
<g
   id="g26">
</g>
<g
   id="g28">
</g>
<g
   id="g30">
</g>
<g
   id="g32">
</g>
<g
   id="g34">
</g>
<g
   id="g36">
</g>
<g
   id="g38">
</g>
<g
   id="g40">
</g>
</svg>