<?xml version="1.0"?>
<svg xmlns="http://www.w3.org/2000/svg" viewBox="0 0 64 64" width="512" height="512"><g id="dumble-house-stay_at_home-coronavirus-covid-covid19" data-name="dumble-house-stay at home-coronavirus-covid-covid19"><path d="M61.506,19.137,57,16.5V7a1,1,0,0,0-1-1H48a1,1,0,0,0-1,1v3.634l-14.494-8.5a1.006,1.006,0,0,0-1.012,0l-29,17A1,1,0,0,0,2,20v6a1,1,0,0,0,1.506.863L32,10.159l28.494,16.7A1,1,0,0,0,62,26V20A1,1,0,0,0,61.506,19.137ZM49,8h6v7.323l-6-3.517ZM60,24.254,32.506,8.137a1,1,0,0,0-1.012,0L4,24.254V20.573L32,4.159,60,20.573Z"/><path d="M58.5,27.13l-26-15a1.044,1.044,0,0,0-1,0l-26,15A1,1,0,0,0,5,28V61a1,1,0,0,0,1,1H58a1,1,0,0,0,1-1V28A1,1,0,0,0,58.5,27.13ZM37,52v8H29V52a.977.977,0,0,0-.55-.89L25,49.38V45h6v2a1,1,0,0,0,1,1h3v1h2V47a1,1,0,0,0-1-1H33V45h6v4.59l-1.71,1.7A1.033,1.033,0,0,0,37,52ZM25,43V36h2v7Zm4,0V34h2v9Zm4,0V35h2v8Zm4,0V36h2v7ZM57,60H39V52.41l1.71-1.7A1.033,1.033,0,0,0,41,50V42h2v5a1,1,0,0,0,1,1h6a1,1,0,0,0,1-1V44h3a1,1,0,0,0,1-1V35a1,1,0,0,0-1-1H51V31a1,1,0,0,0-1-1H44a1,1,0,0,0-1,1v5H41V35a1,1,0,0,0-1-1H37a1,1,0,0,0-1-1H33a1,1,0,0,0-1-1H28a1,1,0,0,0-1,1v1H24a1,1,0,0,0-1,1v1H21V31a1,1,0,0,0-1-1H14a1,1,0,0,0-1,1v3H10a1,1,0,0,0-1,1v8a1,1,0,0,0,1,1h3v3a1,1,0,0,0,1,1h6a1,1,0,0,0,1-1V42h2v8a.977.977,0,0,0,.55.89L27,52.62V60H7V28.58L32,14.15,57,28.58ZM41,40V38h2v2Zm4,6V32h4V46Zm6-4V36h2v6ZM23,38v2H21V38Zm-4-6V46H15V32Zm-6,4v6H11V36Z"/></g></svg>
